<?xml version="1.0" encoding="UTF-8"?>
<svg id="Layer_1" data-name="Layer 1" xmlns="http://www.w3.org/2000/svg" viewBox="0 0 479.32 479.32">
  <defs>
    <style>
      .cls-1 {
        fill: #fff;
      }
    </style>
  </defs>
  <path class="cls-1" d="M336.27,266.71c2.05-2.29,3.56-5.35,4.48-8.31,2.8-9.09-2.55-16.3-12.05-16.69-9.92-.41-17.68,3.98-23.95,11.21-5.88,6.8-7.81,15.13-8.37,23.86-.71,11.17.64,22.24,2.18,33.25,2.64,18.89,2.92,37.67-1.28,56.4-1.86,8.3-3.46,16.71-7.61,24.24-1.52,2.78-3.64,5.51-6.13,7.43-4.3,3.32-9.44,1.3-10.68-4.01-.65-2.75-.77-5.67-.74-8.5.07-7.63,2.04-14.93,4.17-22.18,5.93-20.23,10.51-40.64,9.73-61.96-.79-9.58-1.32-19.19-2.49-28.71-.61-4.99-1.86-10.04-3.7-14.72-2.79-7.1-8.7-10.24-16.15-9.55-7.21.66-12.58,5.22-14.42,12.29-1.23,4.7-1.32,9.51-.22,14.18,1.43,6.1,3.17,12.13,5.05,18.11,3.66,11.64,4.79,23.46,3.22,35.56-1.35,10.42-5.07,20.11-8.75,29.87-3.75,9.95-7.41,19.97-10.47,30.15-3.06,10.21-3.54,20.68.13,30.96,3.83,10.69,10.76,18.3,22.12,21.09,6.9,1.7,13.9,1.73,20.78-.11,19.65-5.26,31.9-17.91,36.94-37.57,5.72-22.35,7.01-45.16,6.91-68.11-.06-12.47.07-24.95.32-37.43.23-11.43,3.1-21.93,10.99-30.74Z"/>
  <path class="cls-1" d="M167.61,349.11c-.1-1.58-.26-3.17-.56-4.73-4.15-21.51-16.38-36.42-36.59-44.82-9.87-4.1-20.39-5.37-30.78-7.26-6.8-1.23-13.64-2.41-19.88-5.63-4.26-2.19-7.83-5.16-9.94-9.59-2.62-5.49-.51-9.69,5.53-10.19,3.67-.3,7.49-.02,11.1.68,9.92,1.94,18.61,6.72,26.84,12.44,4.51,3.13,9.11,6.11,14.55,7.47,9.2,2.28,16.15-1.85,18.41-11.01.38-1.54.66-3.12.77-4.7,1.05-14.77-5.32-25.66-19.14-28.77-4.13-.93-8.52-.75-12.79-.92-7.3-.29-14.64-.05-21.87-.8-9.08-.94-18.05-2.86-27.1-4.01-15.62-1.97-24.96,4.78-28.35,20.13-1.55,7.08-1.52,14.21-.35,21.32,2.97,18.2,13.2,32.94,34.51,37.08,8.89,1.72,17.86,2.98,26.8,4.42,6.91,1.1,13.47,3.14,19.36,7,4.88,3.19,8.63,7.29,9.95,13.15.9,4,.3,7.65-3.26,10.23-3.08,2.22-7.54,2.08-11.15-.6-2.41-1.79-4.62-3.89-6.68-6.09-4.13-4.4-8.85-7.97-14.2-10.73-5.63-2.9-11.49-5.12-17.95-5.04-7.27.09-11.47,4.35-11.17,11.57.1,2.41.59,4.98,1.63,7.13,1.79,3.7,3.81,7.37,6.32,10.6,10.01,12.87,22.09,23.5,36.14,31.76,3.93,2.31,8.25,4.2,12.62,5.49,18.19,5.34,33.2-1.24,41.87-18.08,3.78-7.34,5.49-15.21,5.38-23.45,0-1.35.07-2.7-.02-4.05Z"/>
  <path class="cls-1" d="M233.59,72.75c4.7,4.23,10.35,6.76,16.18,8.95,6.17,2.32,12.45,4.37,18.54,6.88,8.01,3.29,14.38,8.63,18.85,16.16,5.16,8.7,7.45,18.19,7.75,28.19.41,13.75-2.86,26.96-6.46,40.08-3.2,11.63-6.85,23.14-9.89,34.82-1.93,7.42-1.8,14.98,1.14,22.26,3.46,8.56,11,13.2,20.07,11.87,3.87-.57,7.83-1.64,11.36-3.32,20.48-9.76,34.52-25.28,41.22-47.16,3.89-12.68,4.31-25.8,5.3-38.87.75-9.98,1.62-19.95,2.92-29.87,1.24-9.51,5.39-17.57,13.75-22.97.8-.52,1.5-1.18,2.21-1.81,3.28-2.95,5.2-6.52,4.25-11-.98-4.65-4.42-7.33-8.72-8.16-3.98-.77-8.23-1.02-12.25-.54-11.92,1.41-19.34,8.32-21.68,19.87-.74,3.64-1.07,7.41-1.13,11.13-.16,8.82-.05,17.64-.05,26.46.24,0,.52,19.25-.06,28.84-.72,11.92-3.4,23.43-9.2,34.02-2.53,4.62-5.46,9-9.94,12.01-3.56,2.39-6.85,1.23-7.37-2.98-.43-3.39-.41-7.07.43-10.36,2.75-10.85,5.92-21.6,9.03-32.36,6.77-23.36,9.96-47.08,7.24-71.38-1.83-16.33-8.58-30.28-21.59-40.58-15.78-12.5-34-17.08-53.91-15.12-6.06.6-11.88,2.21-16.95,5.82-3.77,2.69-6.37,6.21-7.4,10.75-1.69,7.42.86,13.42,6.37,18.37Z"/>
  <path class="cls-1" d="M60.94,226.3c7.93,3.42,16.25,4.89,24.86,5.03,2.54-.15,5.09-.16,7.61-.49,3.14-.4,6.32-.82,9.39-1.61,28.85-7.46,47.78-26,58.73-53.19,3.23-8.03,4.96-16.4,3.91-25.18-1.17-9.78-7.19-15.65-17-15.95-4.75-.14-9.53.12-14.28.56-8.78.82-17.32,2.78-24.75,7.85-6.21,4.24-11.48,9.42-13.13,17.17-1.19,5.61,1.94,10.4,7.55,11.63,1.74.38,3.62.35,5.43.29,1.74-.05,3.47-.52,5.21-.57,4.12-.1,6.52,2.47,5.34,6.38-.76,2.54-2.31,5.12-4.2,6.99-4.7,4.66-10.65,6.43-17.25,5.98-8.05-.56-14.45-6.38-15.37-14.39-.35-2.96-.41-6.12.22-9,3.75-17.23,13.46-29.84,29.94-36.59,5.55-2.27,11.52-3.57,17.34-5.13,5.49-1.48,10.85-3.2,15.48-6.58,6.03-4.41,9.7-10.32,9.02-17.89-.4-4.42-1.63-8.95-3.42-13.02-3.84-8.79-10.86-12.1-20.22-10.09-8.8,1.88-16.52,6.2-23.66,11.44-19.36,14.21-35.22,31.82-48.78,51.54-8.84,12.86-15.72,26.71-19.44,41.96-4.68,19.2,3.31,35.05,21.45,42.86Z"/>
  <path class="cls-1" d="M161.83,89.6c2.84,5.5,5.64,11.04,8.22,16.67,3.75,8.22,5.48,16.86,5.32,25.93-.2,11.16-1.42,22.19-3.49,33.15-2.77,14.69-7.48,28.57-16.6,40.66-1.91,2.54-3.86,5.11-5.32,7.91-2,3.84-4.21,7.76-5.16,11.91-1.67,7.32,2.4,11.83,9.92,11.29,4.06-.29,8.14-1.37,12.05-2.59,13.84-4.33,27.85-5.26,41.84-1.51,8.03,2.14,15.79,5.33,23.6,8.2,5.46,2,11.01,3.14,16.81,2.64,5.63-.49,10.44-2.72,13.92-7.3,5.31-6.97,3.2-15.45-4.81-18.97-2.23-.98-4.66-1.67-7.07-2.04-13.19-1.99-26.42-3.78-39.62-5.76-4.94-.74-9.88-1.62-14.73-2.79-3.75-.91-4.58-2.48-4.11-6.3.15-1.26.47-2.5.78-3.73,7.31-29.44,10.9-59.34,11.28-88.32-.28-6.34-.39-11.35-.74-16.34-.65-8.99-1.91-17.85-5.9-26.11-5.66-11.7-16.01-17.51-28.92-16.1-11.31,1.24-16.84,8.43-15,19.6,1.19,7.16,4.43,13.54,7.72,19.91Z"/>
  <path class="cls-1" d="M438.17,240.63c-5.29-12.1-14.61-17.32-27.69-15.82-9.46,1.08-17.71,4.9-25.09,10.72-4.81,3.78-9.26,8.03-14.17,11.68-7.07,5.26-14.5,10.04-21.59,15.28-7.65,5.65-13.05,12.97-13.81,22.71-.41,5.26.05,10.62.49,15.9.65,7.9,2.51,15.8,2.28,23.65-.49,15.73-2.81,31.32-6.21,46.72-1.63,7.36-3.75,14.63-5.13,22.03-1.76,9.45,2.76,17.14,10.94,18.95,2.72.6,5.72.62,8.49.21,13.08-1.94,21.5-12.15,20.73-25.14-.38-6.5-1.34-12.97-1.86-19.45-.66-8.07-1.6-16.15-1.57-24.23.04-10.4,3.44-13.79,13.61-15.57,5.95-1.04,11.93-1.94,17.79-3.36,12.48-3.03,23.57-8.7,32.01-18.64,10.47-12.34,15-26.88,15.34-42.87.1-7.91-1.37-15.51-4.54-22.75ZM406.67,283.14c-2.52,8.73-8.69,14.11-16.89,17.16-3.74,1.39-7.83,1.86-11.93,2.78-3.59-.85-7.27-1.29-10.61-2.62-7.11-2.83-9.37-9.9-5.01-16.18,1.97-2.84,4.84-5.32,7.8-7.16,7.88-4.89,16.55-7.3,25.9-6.54,1.94.15,3.93.71,5.71,1.52,4.57,2.07,6.44,6.18,5.04,11.04Z"/>
  <path class="cls-1" d="M219.22,190.02c10.04,17.53,29.84,21.65,46.06,9.58,6.32-4.7,10.94-10.78,14.08-18,5.98-13.77,8.53-28.26,8.46-43.17-.04-10.23-2.36-20.05-8.07-28.75-8.5-12.97-20.33-19.92-36.05-17.92-15.73,2-25.22,11.74-29.73,26.58-2.99,9.84-3.36,20.01-3.56,32.29.13,2.36.21,6.81.65,11.23.96,9.88,3.17,19.45,8.17,28.17ZM259.7,166.15c-2.57,3.95-6,6.68-11.04,6.15-4.98-.53-8.05-3.78-9.69-8.15-2.68-7.16-2.69-14.52.13-21.67,3.64-9.19,13.56-10.47,19.65-2.64,3.1,3.98,4.35,8.59,4.31,13.1.03,5.04-.87,9.37-3.36,13.21Z"/>
  <path class="cls-1" d="M250.24,316.27c-.59-18.02-4.4-33.04-12.68-46.77-6.56-10.86-14.89-20.02-26.38-25.86-9.25-4.7-18.96-6.63-29.07-3.45-13.47,4.23-20.81,14.28-24.47,27.33-3.72,13.23-2.15,26.2,3.08,38.71,3.25,7.76,7.04,15.29,10.6,22.92,4.98,10.66,7.07,21.81,4.71,33.4-1.54,7.61-3.93,15.05-5.82,22.59-1.83,7.3-3.95,14.56-5.14,21.98-1.13,7-.05,13.98,3.5,20.32,2.82,5.03,7.11,7.99,12.89,8.75,8.21,1.07,15.39-1.39,21.82-6.35,6.28-4.84,10.7-11.23,14.69-17.96,12.89-21.76,22.01-45.05,28.52-69.43,2.48-9.27,3.92-18.65,3.73-26.17ZM216.67,361.96c-.95,2.25-2.15,4.44-3.51,6.47-1.3,1.92-2.96,3.75-5.67,3.11-2.54-.6-2.99-2.97-3.36-5.02-.74-4.06-.99-8.21-1.8-12.25-2.77-13.77-5.69-27.51-8.55-41.26-1.3-6.24-2.26-12.52-1.21-18.91.6-3.67,1.74-7.12,5.63-8.45,3.97-1.35,7.51-.13,10.53,2.67,4.81,4.48,7.44,10.26,9.41,16.35,2.76,8.53,4.03,17.31,3.94,26.28-.17,10.62-1.21,21.1-5.4,31.01Z"/>
  <path class="cls-1" d="M369.07,117.61c-1,2.91-1.79,5.99-2.02,9.03-.93,12.28-1.72,24.57-2.34,36.86-.95,18.86-4.52,37.17-10.81,54.98-1.93,5.46-3.83,10.97-5.17,16.59-.72,3.06-.71,6.49-.18,9.62.63,3.78,4.18,5.87,7.94,4.98,2.26-.54,4.51-1.57,6.46-2.86,4.71-3.11,7.73-7.68,10-12.77,4.83-10.85,6.91-22.42,9.06-33.99.82-4.45,1.7-8.89,2.92-13.25.91-3.23,2.61-4.01,5.84-3.17,1.91.5,3.73,1.33,5.59,2.02,4.39,1.61,8.67,3.68,13.19,4.75,12.79,3.02,20.62-3.45,20.63-16.6-.07-1.1-.03-2.24-.21-3.33-3.82-22.36-14.04-41.06-32.22-54.92-3.7-2.83-8.21-4.94-12.66-6.35-7.44-2.36-13.45,1.02-16,8.41ZM380.93,131.67c2.14-5.05,6.02-6.57,11.02-4.09,7.06,3.51,11.37,9.57,14.39,16.57,1.36,3.15,1.98,6.63,2.94,9.95-.47,8.45-5.33,12.07-13.29,9.69-12.72-3.81-20.24-19.86-15.06-32.12Z"/>
</svg>